HIERARCHY
ROOT Hips
{
	OFFSET -0.001795 -0.223333 0.028219
	CHANNELS 6 Xposition Yposition Zposition Zrotation Yrotation Xrotation 
	JOINT LeftUpLeg
	{
		OFFSET 0.069520 -0.091406 -0.006815
		CHANNELS 3 Zrotation Yrotation Xrotation
		JOINT LeftLeg
		{
			OFFSET 0.034277 -0.375199 -0.004496
			CHANNELS 3 Zrotation Yrotation Xrotation
			JOINT LeftFoot
			{
				OFFSET -0.013596 -0.397961 -0.043693
				CHANNELS 3 Zrotation Yrotation Xrotation
				JOINT LeftToe
				{
					OFFSET 0.026358 -0.055791 0.119288
					CHANNELS 3 Zrotation Yrotation Xrotation
					End Site
					{
						OFFSET 0.000000 0.000000 0.000000
					}
				}
			}
		}
	}
	JOINT RightUpLeg
	{
		OFFSET -0.067670 -0.090522 -0.004320
		CHANNELS 3 Zrotation Yrotation Xrotation
		JOINT RightLeg
		{
			OFFSET -0.038290 -0.382569 -0.008850
			CHANNELS 3 Zrotation Yrotation Xrotation
			JOINT RightFoot
			{
				OFFSET 0.015774 -0.398415 -0.042312
				CHANNELS 3 Zrotation Yrotation Xrotation
				JOINT RightToe
				{
					OFFSET -0.025372 -0.048144 0.123348
					CHANNELS 3 Zrotation Yrotation Xrotation
					End Site
					{
						OFFSET 0.000000 0.000000 0.000000
					}
				}
			}
		}
	}
	JOINT Spine
	{
		OFFSET -0.002533 0.108963 -0.026696
		CHANNELS 3 Zrotation Yrotation Xrotation
		JOINT Spine1
		{
			OFFSET 0.005487 0.135180 0.001092
			CHANNELS 3 Zrotation Yrotation Xrotation
			JOINT Spine2
			{
				OFFSET 0.001457 0.052922 0.025425
				CHANNELS 3 Zrotation Yrotation Xrotation
				JOINT Neck
				{
					OFFSET -0.002778 0.213870 -0.042857
					CHANNELS 3 Zrotation Yrotation Xrotation
					JOINT Head
					{
						OFFSET 0.005152 0.064970 0.051349
						CHANNELS 3 Zrotation Yrotation Xrotation
						End Site
						{
							OFFSET 0.000000 0.000000 0.000000
						}
					}
				}
				JOINT LeftShoulder
				{
					OFFSET 0.078845 0.121749 -0.034090
					CHANNELS 3 Zrotation Yrotation Xrotation
					JOINT LeftArm
					{
						OFFSET 0.090977 0.030469 -0.008868
						CHANNELS 3 Zrotation Yrotation Xrotation
						JOINT LeftForeArm
						{
							OFFSET 0.259612 -0.012772 -0.027456
							CHANNELS 3 Zrotation Yrotation Xrotation
							JOINT LeftHand
							{
								OFFSET 0.249234 0.008986 -0.001171
								CHANNELS 3 Zrotation Yrotation Xrotation
								End Site
								{
									OFFSET 0.000000 0.000000 0.000000
								}
							}
						}
					}
				}
				JOINT RightShoulder
				{
					OFFSET -0.081759 0.118833 -0.038615
					CHANNELS 3 Zrotation Yrotation Xrotation
					JOINT RightArm
					{
						OFFSET -0.096012 0.032551 -0.009143
						CHANNELS 3 Zrotation Yrotation Xrotation
						JOINT RightForeArm
						{
							OFFSET -0.253742 -0.013329 -0.021401
							CHANNELS 3 Zrotation Yrotation Xrotation
							JOINT RightHand
							{
								OFFSET -0.255298 0.007772 -0.005559
								CHANNELS 3 Zrotation Yrotation Xrotation
								End Site
								{
									OFFSET 0.000000 0.000000 0.000000
								}
							}
						}
					}
				}
			}
		}
	}
}
MOTION
Frames: 8
Frame Time: 0.050000
-0.477325 0.965348 0.135965 -2.659925 53.022746 -3.399066 8.710815 -1.770355 -13.595660 -0.937067 -0.760577 8.875671 2.287568 12.516653 13.026657 0.000000 0.000000 0.000000 0.631254 -0.539691 3.127926 3.244625 -1.607411 6.800101 -24.297016 -43.446900 20.717371 0.000000 0.000000 0.000000 -6.416250 -2.350780 22.823504 3.521391 0.880103 -25.547430 -1.487338 8.866625 34.330773 1.993191 5.108883 -14.277538 0.000000 0.000000 0.000000 -11.732658 -12.061473 -4.603039 -52.499379 -15.993577 -0.723419 -31.801975 -65.626716 10.681697 0.000000 0.000000 0.000000 10.875210 7.396288 9.415616 64.311421 22.688984 7.418786 0.409571 37.682418 3.455054 0.000000 0.000000 0.000000 
-0.493073 0.966636 0.138329 -3.328599 54.005922 -4.341312 8.366200 -1.669350 -12.758676 -0.351834 -0.570425 6.802094 3.447821 14.049151 13.690245 0.000000 0.000000 0.000000 1.143478 -0.582535 3.554772 3.216881 -1.575911 6.372481 -23.167488 -41.776646 20.268761 0.000000 0.000000 0.000000 -6.161966 -2.595645 23.501073 3.776002 0.878163 -25.140205 -0.549392 9.386361 34.501328 3.083244 4.456420 -13.958481 0.000000 0.000000 0.000000 -11.128306 -12.949386 -4.114874 -52.110872 -16.859994 -0.561367 -31.311348 -66.012423 10.201404 0.000000 0.000000 0.000000 10.483814 8.605232 9.960931 64.332773 23.700390 8.214645 -1.618960 36.355902 2.415675 0.000000 0.000000 0.000000 
-0.509120 0.966620 0.140573 -4.146502 55.554086 -5.068665 7.738483 -1.605558 -12.337174 0.899852 -0.436533 4.752817 3.876527 14.482137 13.835634 0.000000 0.000000 0.000000 1.490404 -0.552928 3.433617 3.230625 -1.653436 6.434303 -21.851121 -39.645545 19.725432 0.000000 0.000000 0.000000 -5.835144 -2.622873 23.047519 4.407896 0.801434 -24.329861 0.038287 9.235245 34.339909 2.901780 4.607344 -13.630542 0.000000 0.000000 0.000000 -11.261164 -13.477162 -4.223317 -51.570558 -16.322212 -0.664719 -32.076603 -64.749888 10.253104 0.000000 0.000000 0.000000 10.136071 9.837538 10.552953 62.942505 24.052805 8.158728 -0.764834 36.664676 2.506230 0.000000 0.000000 0.000000 
-0.525540 0.966799 0.143504 -4.724043 56.109856 -6.068968 7.317156 -1.519676 -11.822466 2.412611 -0.348582 3.063001 3.952481 15.216765 15.369030 0.000000 0.000000 0.000000 1.645151 -0.618053 3.833611 3.433761 -1.719467 6.286698 -19.970512 -37.143299 18.294977 0.000000 0.000000 0.000000 -5.442291 -2.544488 22.347612 4.644295 0.786751 -23.682361 0.665899 9.817611 34.250208 3.447943 4.467279 -13.962981 0.000000 0.000000 0.000000 -11.356610 -14.259209 -4.224005 -50.445750 -14.816249 -1.008887 -35.558363 -64.621731 12.065958 0.000000 0.000000 0.000000 10.963341 10.719094 11.653861 61.652268 24.549177 7.838507 -0.371277 36.740866 2.476705 0.000000 0.000000 0.000000 
-0.541962 0.966186 0.146838 -4.753035 55.986194 -5.963637 7.356394 -1.542509 -12.016623 3.074515 -0.323475 2.435430 4.292764 15.741430 15.834687 0.000000 0.000000 0.000000 1.578356 -0.672320 4.130223 3.590425 -1.608020 5.178137 -17.611096 -34.247726 15.909098 0.000000 0.000000 0.000000 -4.848378 -2.447456 21.638473 4.413030 0.862789 -22.931095 0.785726 9.989716 33.278369 3.216412 4.711462 -14.341075 0.000000 0.000000 0.000000 -12.067439 -14.476586 -4.530241 -49.754482 -13.282215 -1.239133 -37.840855 -64.868704 13.600331 0.000000 0.000000 0.000000 12.047772 11.869081 12.959724 59.417223 26.012308 7.660279 -0.157975 36.794552 2.374915 0.000000 0.000000 0.000000 
-0.558104 0.967175 0.149794 -3.836718 57.323527 -5.699554 6.644360 -1.477563 -11.795650 3.286690 -0.316148 2.224155 3.744240 14.947413 15.262325 0.000000 0.000000 0.000000 1.058033 -0.778995 4.469061 3.637079 -1.496113 3.856316 -18.077950 -33.429852 17.942943 0.000000 0.000000 0.000000 -4.131222 -2.459940 21.071306 4.027109 0.990090 -21.921863 1.174593 9.564779 32.460045 2.945937 4.931552 -14.391063 0.000000 0.000000 0.000000 -12.032770 -15.723943 -4.120754 -49.818117 -13.247004 -1.198847 -39.432959 -65.808390 14.696101 0.000000 0.000000 0.000000 11.300133 13.164549 13.234375 58.478181 26.348268 8.006041 0.366579 38.245088 2.556753 0.000000 0.000000 0.000000 
-0.574008 0.967471 0.152448 -3.505603 59.318754 -6.028406 6.394139 -1.546157 -12.333205 3.327476 -0.329956 2.371412 2.700760 14.120713 15.629098 0.000000 0.000000 0.000000 0.858200 -0.976626 5.342546 3.777628 -1.517764 3.088935 -17.092793 -31.809935 17.362212 0.000000 0.000000 0.000000 -3.595269 -2.599764 21.043349 3.776683 1.115798 -21.624157 1.528672 9.205171 31.983814 2.896238 5.182351 -14.846080 0.000000 0.000000 0.000000 -12.869724 -16.237663 -4.678765 -49.802093 -12.535107 -1.116628 -40.416286 -66.545610 15.412922 0.000000 0.000000 0.000000 11.254373 13.852746 13.708252 56.648604 27.399602 8.202963 0.108628 40.467969 2.742804 0.000000 0.000000 0.000000 
-0.589625 0.968240 0.154513 -2.760923 60.838234 -6.252232 6.586153 -1.522223 -11.875298 2.398104 -0.299057 2.260052 1.773755 12.926502 15.085865 0.000000 0.000000 0.000000 0.305645 -1.175678 6.043126 4.174910 -1.666976 2.879729 -16.150852 -30.241413 16.787156 0.000000 0.000000 0.000000 -3.408094 -2.709003 21.138821 3.730286 1.163466 -21.142968 1.588710 9.166572 31.682915 2.254261 5.601811 -14.660583 0.000000 0.000000 0.000000 -14.000332 -16.753087 -5.344134 -49.281451 -11.826511 -0.888389 -44.485302 -66.616240 18.058223 0.000000 0.000000 0.000000 11.705511 14.205461 14.288282 54.482055 28.454825 8.075074 1.108625 43.217076 3.535574 0.000000 0.000000 0.000000 
